<svg width="12" height="12" viewBox="0 0 12 12" fill="none" xmlns="http://www.w3.org/2000/svg">
<path d="M0 6.54547C0 6.54547 2.67109 6.05615 3.8182 4.90901C4.96527 3.7619 5.45455 1.09092 5.45455 1.09092C5.45455 1.09092 5.94379 3.7619 7.09085 4.909C8.23797 6.05617 10.9091 6.54547 10.9091 6.54547C10.9091 6.54547 8.23797 7.03469 7.09085 8.18182C5.94375 9.32894 5.45455 12 5.45455 12C5.45455 12 4.96531 9.32894 3.8182 8.18182C2.67109 7.03471 0 6.54547 0 6.54547Z" fill="#C40F32" fill-opacity="0.5"/>
<path d="M8.72723 1.63641C8.72723 1.63641 9.52858 1.48961 9.87272 1.14546C10.2168 0.801325 10.3636 1.37357e-05 10.3636 1.37357e-05C10.3636 1.37357e-05 10.5104 0.801325 10.8545 1.14546C11.1987 1.48962 12 1.63641 12 1.63641C12 1.63641 11.1987 1.78318 10.8545 2.12733C10.5104 2.47147 10.3636 3.27281 10.3636 3.27281C10.3636 3.27281 10.2169 2.47147 9.87272 2.12733C9.52858 1.78319 8.72723 1.63641 8.72723 1.63641Z" fill="#C40F32" fill-opacity="0.5"/>
</svg>
